<mxfile host="app.diagrams.net" modified="2022-08-17T04:20:45.061Z" agent="5.0 (Windows NT 10.0; Win64; x64) AppleWebKit/537.36 (KHTML, like Gecko) Chrome/104.0.5112.81 Safari/537.36 Edg/104.0.1293.47" etag="1JRYnVDxdpH0vlYTY37V" version="20.2.4" type="github">
  <diagram id="nreCz1yV9TlbwErvjmWX" name="第 1 页">
    <mxGraphModel dx="1422" dy="762" grid="1" gridSize="10" guides="1" tooltips="1" connect="1" arrows="1" fold="1" page="1" pageScale="1" pageWidth="827" pageHeight="1169" math="0" shadow="0">
      <root>
        <mxCell id="0" />
        <mxCell id="1" parent="0" />
        <mxCell id="1o4pj-MJ49ijJUOISk7L-2" value="3D Model" style="swimlane;fontStyle=1;childLayout=stackLayout;horizontal=1;startSize=30;horizontalStack=0;resizeParent=1;resizeParentMax=0;resizeLast=0;collapsible=1;marginBottom=0;" vertex="1" parent="1">
          <mxGeometry x="150" y="300" width="140" height="150" as="geometry" />
        </mxCell>
        <mxCell id="1o4pj-MJ49ijJUOISk7L-3" value="Component A" style="text;strokeColor=none;fillColor=none;align=left;verticalAlign=middle;spacingLeft=4;spacingRight=4;overflow=hidden;points=[[0,0.5],[1,0.5]];portConstraint=eastwest;rotatable=0;" vertex="1" parent="1o4pj-MJ49ijJUOISk7L-2">
          <mxGeometry y="30" width="140" height="30" as="geometry" />
        </mxCell>
        <mxCell id="1o4pj-MJ49ijJUOISk7L-4" value="Component B" style="text;strokeColor=none;fillColor=none;align=left;verticalAlign=middle;spacingLeft=4;spacingRight=4;overflow=hidden;points=[[0,0.5],[1,0.5]];portConstraint=eastwest;rotatable=0;" vertex="1" parent="1o4pj-MJ49ijJUOISk7L-2">
          <mxGeometry y="60" width="140" height="30" as="geometry" />
        </mxCell>
        <mxCell id="1o4pj-MJ49ijJUOISk7L-5" value="Component C" style="text;strokeColor=none;fillColor=none;align=left;verticalAlign=middle;spacingLeft=4;spacingRight=4;overflow=hidden;points=[[0,0.5],[1,0.5]];portConstraint=eastwest;rotatable=0;" vertex="1" parent="1o4pj-MJ49ijJUOISk7L-2">
          <mxGeometry y="90" width="140" height="30" as="geometry" />
        </mxCell>
        <mxCell id="1o4pj-MJ49ijJUOISk7L-6" value="..." style="text;strokeColor=none;fillColor=none;align=left;verticalAlign=middle;spacingLeft=4;spacingRight=4;overflow=hidden;points=[[0,0.5],[1,0.5]];portConstraint=eastwest;rotatable=0;" vertex="1" parent="1o4pj-MJ49ijJUOISk7L-2">
          <mxGeometry y="120" width="140" height="30" as="geometry" />
        </mxCell>
        <mxCell id="1o4pj-MJ49ijJUOISk7L-12" value="Mapping" style="swimlane;fontStyle=1;childLayout=stackLayout;horizontal=1;startSize=30;horizontalStack=0;resizeParent=1;resizeParentMax=0;resizeLast=0;collapsible=1;marginBottom=0;" vertex="1" parent="1">
          <mxGeometry x="343.5" y="300" width="140" height="150" as="geometry" />
        </mxCell>
        <mxCell id="1o4pj-MJ49ijJUOISk7L-13" value="Valve A" style="text;strokeColor=none;fillColor=none;align=left;verticalAlign=middle;spacingLeft=4;spacingRight=4;overflow=hidden;points=[[0,0.5],[1,0.5]];portConstraint=eastwest;rotatable=0;" vertex="1" parent="1o4pj-MJ49ijJUOISk7L-12">
          <mxGeometry y="30" width="140" height="30" as="geometry" />
        </mxCell>
        <mxCell id="1o4pj-MJ49ijJUOISk7L-14" value="Gas Tank A" style="text;strokeColor=none;fillColor=none;align=left;verticalAlign=middle;spacingLeft=4;spacingRight=4;overflow=hidden;points=[[0,0.5],[1,0.5]];portConstraint=eastwest;rotatable=0;" vertex="1" parent="1o4pj-MJ49ijJUOISk7L-12">
          <mxGeometry y="60" width="140" height="30" as="geometry" />
        </mxCell>
        <mxCell id="1o4pj-MJ49ijJUOISk7L-15" value="Valve B" style="text;strokeColor=none;fillColor=none;align=left;verticalAlign=middle;spacingLeft=4;spacingRight=4;overflow=hidden;points=[[0,0.5],[1,0.5]];portConstraint=eastwest;rotatable=0;" vertex="1" parent="1o4pj-MJ49ijJUOISk7L-12">
          <mxGeometry y="90" width="140" height="30" as="geometry" />
        </mxCell>
        <mxCell id="1o4pj-MJ49ijJUOISk7L-16" value="..." style="text;strokeColor=none;fillColor=none;align=left;verticalAlign=middle;spacingLeft=4;spacingRight=4;overflow=hidden;points=[[0,0.5],[1,0.5]];portConstraint=eastwest;rotatable=0;" vertex="1" parent="1o4pj-MJ49ijJUOISk7L-12">
          <mxGeometry y="120" width="140" height="30" as="geometry" />
        </mxCell>
        <mxCell id="1o4pj-MJ49ijJUOISk7L-17" style="edgeStyle=orthogonalEdgeStyle;rounded=0;orthogonalLoop=1;jettySize=auto;html=1;entryX=0;entryY=0.5;entryDx=0;entryDy=0;" edge="1" parent="1" source="1o4pj-MJ49ijJUOISk7L-3" target="1o4pj-MJ49ijJUOISk7L-13">
          <mxGeometry relative="1" as="geometry" />
        </mxCell>
        <mxCell id="1o4pj-MJ49ijJUOISk7L-18" style="edgeStyle=orthogonalEdgeStyle;rounded=0;orthogonalLoop=1;jettySize=auto;html=1;entryX=0;entryY=0.5;entryDx=0;entryDy=0;" edge="1" parent="1" source="1o4pj-MJ49ijJUOISk7L-4" target="1o4pj-MJ49ijJUOISk7L-14">
          <mxGeometry relative="1" as="geometry" />
        </mxCell>
        <mxCell id="1o4pj-MJ49ijJUOISk7L-19" style="edgeStyle=orthogonalEdgeStyle;rounded=0;orthogonalLoop=1;jettySize=auto;html=1;entryX=0;entryY=0.5;entryDx=0;entryDy=0;" edge="1" parent="1" source="1o4pj-MJ49ijJUOISk7L-5" target="1o4pj-MJ49ijJUOISk7L-15">
          <mxGeometry relative="1" as="geometry" />
        </mxCell>
        <mxCell id="1o4pj-MJ49ijJUOISk7L-20" value="WebGL Model" style="swimlane;fontStyle=1;childLayout=stackLayout;horizontal=1;startSize=30;horizontalStack=0;resizeParent=1;resizeParentMax=0;resizeLast=0;collapsible=1;marginBottom=0;" vertex="1" parent="1">
          <mxGeometry x="550" y="210" width="210" height="300" as="geometry" />
        </mxCell>
        <mxCell id="1o4pj-MJ49ijJUOISk7L-21" value="model_name" style="text;strokeColor=none;fillColor=none;align=left;verticalAlign=middle;spacingLeft=4;spacingRight=4;overflow=hidden;points=[[0,0.5],[1,0.5]];portConstraint=eastwest;rotatable=0;" vertex="1" parent="1o4pj-MJ49ijJUOISk7L-20">
          <mxGeometry y="30" width="210" height="30" as="geometry" />
        </mxCell>
        <mxCell id="1o4pj-MJ49ijJUOISk7L-22" value="model_geometry_properties" style="text;strokeColor=none;fillColor=none;align=left;verticalAlign=middle;spacingLeft=4;spacingRight=4;overflow=hidden;points=[[0,0.5],[1,0.5]];portConstraint=eastwest;rotatable=0;" vertex="1" parent="1o4pj-MJ49ijJUOISk7L-20">
          <mxGeometry y="60" width="210" height="30" as="geometry" />
        </mxCell>
        <mxCell id="1o4pj-MJ49ijJUOISk7L-23" value="model_meterial_properties" style="text;strokeColor=none;fillColor=none;align=left;verticalAlign=middle;spacingLeft=4;spacingRight=4;overflow=hidden;points=[[0,0.5],[1,0.5]];portConstraint=eastwest;rotatable=0;" vertex="1" parent="1o4pj-MJ49ijJUOISk7L-20">
          <mxGeometry y="90" width="210" height="30" as="geometry" />
        </mxCell>
        <mxCell id="1o4pj-MJ49ijJUOISk7L-24" value="equipment_id" style="text;strokeColor=none;fillColor=none;align=left;verticalAlign=middle;spacingLeft=4;spacingRight=4;overflow=hidden;points=[[0,0.5],[1,0.5]];portConstraint=eastwest;rotatable=0;" vertex="1" parent="1o4pj-MJ49ijJUOISk7L-20">
          <mxGeometry y="120" width="210" height="30" as="geometry" />
        </mxCell>
        <mxCell id="1o4pj-MJ49ijJUOISk7L-26" value="equipment_name" style="text;strokeColor=none;fillColor=none;align=left;verticalAlign=middle;spacingLeft=4;spacingRight=4;overflow=hidden;points=[[0,0.5],[1,0.5]];portConstraint=eastwest;rotatable=0;fontColor=#EA6B66;" vertex="1" parent="1o4pj-MJ49ijJUOISk7L-20">
          <mxGeometry y="150" width="210" height="30" as="geometry" />
        </mxCell>
        <mxCell id="1o4pj-MJ49ijJUOISk7L-34" value="equipment_state" style="text;strokeColor=none;fillColor=none;align=left;verticalAlign=middle;spacingLeft=4;spacingRight=4;overflow=hidden;points=[[0,0.5],[1,0.5]];portConstraint=eastwest;rotatable=0;fontColor=#EA6B66;" vertex="1" parent="1o4pj-MJ49ijJUOISk7L-20">
          <mxGeometry y="180" width="210" height="30" as="geometry" />
        </mxCell>
        <mxCell id="1o4pj-MJ49ijJUOISk7L-27" value="signal_id" style="text;strokeColor=none;fillColor=none;align=left;verticalAlign=middle;spacingLeft=4;spacingRight=4;overflow=hidden;points=[[0,0.5],[1,0.5]];portConstraint=eastwest;rotatable=0;fontColor=#EA6B66;" vertex="1" parent="1o4pj-MJ49ijJUOISk7L-20">
          <mxGeometry y="210" width="210" height="30" as="geometry" />
        </mxCell>
        <mxCell id="1o4pj-MJ49ijJUOISk7L-28" value="signal_list" style="text;strokeColor=none;fillColor=none;align=left;verticalAlign=middle;spacingLeft=4;spacingRight=4;overflow=hidden;points=[[0,0.5],[1,0.5]];portConstraint=eastwest;rotatable=0;fontColor=#EA6B66;" vertex="1" parent="1o4pj-MJ49ijJUOISk7L-20">
          <mxGeometry y="240" width="210" height="30" as="geometry" />
        </mxCell>
        <mxCell id="1o4pj-MJ49ijJUOISk7L-29" value="opacitiable" style="text;strokeColor=none;fillColor=none;align=left;verticalAlign=middle;spacingLeft=4;spacingRight=4;overflow=hidden;points=[[0,0.5],[1,0.5]];portConstraint=eastwest;rotatable=0;" vertex="1" parent="1o4pj-MJ49ijJUOISk7L-20">
          <mxGeometry y="270" width="210" height="30" as="geometry" />
        </mxCell>
        <mxCell id="1o4pj-MJ49ijJUOISk7L-33" style="text;strokeColor=none;fillColor=none;align=left;verticalAlign=middle;spacingLeft=4;spacingRight=4;overflow=hidden;points=[[0,0.5],[1,0.5]];portConstraint=eastwest;rotatable=0;" vertex="1" parent="1">
          <mxGeometry x="530" y="600" width="210" height="30" as="geometry" />
        </mxCell>
        <mxCell id="1o4pj-MJ49ijJUOISk7L-37" style="edgeStyle=orthogonalEdgeStyle;rounded=0;orthogonalLoop=1;jettySize=auto;html=1;entryX=0;entryY=0.5;entryDx=0;entryDy=0;" edge="1" parent="1" source="1o4pj-MJ49ijJUOISk7L-14" target="1o4pj-MJ49ijJUOISk7L-26">
          <mxGeometry relative="1" as="geometry" />
        </mxCell>
        <mxCell id="1o4pj-MJ49ijJUOISk7L-39" value="Toggle Border&lt;br&gt;显示/隐藏模型轮廓线(虚线)" style="rounded=1;whiteSpace=wrap;html=1;fillColor=#d5e8d4;strokeColor=#82b366;" vertex="1" parent="1">
          <mxGeometry x="827" y="440" width="230" height="60" as="geometry" />
        </mxCell>
        <mxCell id="1o4pj-MJ49ijJUOISk7L-40" value="Toggle Panel&lt;br&gt;显示/隐藏模型信息面板" style="rounded=1;whiteSpace=wrap;html=1;fillColor=#d5e8d4;strokeColor=#82b366;" vertex="1" parent="1">
          <mxGeometry x="827" y="510" width="230" height="60" as="geometry" />
        </mxCell>
        <mxCell id="1o4pj-MJ49ijJUOISk7L-41" value="Hoverable&lt;br&gt;鼠标悬停交互" style="rounded=1;whiteSpace=wrap;html=1;fillColor=#d5e8d4;strokeColor=#82b366;" vertex="1" parent="1">
          <mxGeometry x="827" y="75.5" width="230" height="60" as="geometry" />
        </mxCell>
        <mxCell id="1o4pj-MJ49ijJUOISk7L-42" value="Update Opacity&lt;br&gt;更新模型透明度" style="rounded=1;whiteSpace=wrap;html=1;fillColor=#d5e8d4;strokeColor=#82b366;" vertex="1" parent="1">
          <mxGeometry x="827" y="220" width="230" height="60" as="geometry" />
        </mxCell>
        <mxCell id="1o4pj-MJ49ijJUOISk7L-43" value="Update Infomation&lt;br&gt;更新模型信息" style="rounded=1;whiteSpace=wrap;html=1;fillColor=#d5e8d4;strokeColor=#82b366;" vertex="1" parent="1">
          <mxGeometry x="827" y="364.5" width="230" height="60" as="geometry" />
        </mxCell>
        <mxCell id="1o4pj-MJ49ijJUOISk7L-44" value="Selectable&lt;br&gt;鼠标点击交互" style="rounded=1;whiteSpace=wrap;html=1;fillColor=#d5e8d4;strokeColor=#82b366;" vertex="1" parent="1">
          <mxGeometry x="827" y="145.5" width="230" height="60" as="geometry" />
        </mxCell>
        <mxCell id="1o4pj-MJ49ijJUOISk7L-46" value="Update Texture&lt;br&gt;更新模型材质" style="rounded=1;whiteSpace=wrap;html=1;fillColor=#d5e8d4;strokeColor=#82b366;" vertex="1" parent="1">
          <mxGeometry x="827" y="290" width="230" height="60" as="geometry" />
        </mxCell>
        <mxCell id="1o4pj-MJ49ijJUOISk7L-47" value="Update Panel&lt;br&gt;更新模型信息面板" style="rounded=1;whiteSpace=wrap;html=1;fillColor=#d5e8d4;strokeColor=#82b366;" vertex="1" parent="1">
          <mxGeometry x="827" y="580" width="230" height="60" as="geometry" />
        </mxCell>
      </root>
    </mxGraphModel>
  </diagram>
</mxfile>
